<?xml version="1.0" encoding="UTF-8" standalone="no"?>
<svg
   xmlns:dc="http://purl.org/dc/elements/1.1/"
   xmlns:cc="http://creativecommons.org/ns#"
   xmlns:rdf="http://www.w3.org/1999/02/22-rdf-syntax-ns#"
   xmlns:svg="http://www.w3.org/2000/svg"
   xmlns="http://www.w3.org/2000/svg"
   xmlns:sodipodi="http://sodipodi.sourceforge.net/DTD/sodipodi-0.dtd"
   xmlns:inkscape="http://www.inkscape.org/namespaces/inkscape"
   fill="#000000"
   height="36"
   viewBox="0 0 24 24"
   width="36"
   version="1.1"
   id="svg6"
   sodipodi:docname="ac_unit.svg"
   inkscape:version="0.92.2 (5c3e80d, 2017-08-06)">
  <metadata
     id="metadata12">
    <rdf:RDF>
      <cc:Work
         rdf:about="">
        <dc:format>image/svg+xml</dc:format>
        <dc:type
           rdf:resource="http://purl.org/dc/dcmitype/StillImage" />
      </cc:Work>
    </rdf:RDF>
  </metadata>
  <defs
     id="defs10" />
  <sodipodi:namedview
     pagecolor="#ffffff"
     bordercolor="#666666"
     borderopacity="1"
     objecttolerance="10"
     gridtolerance="10"
     guidetolerance="10"
     inkscape:pageopacity="0"
     inkscape:pageshadow="2"
     inkscape:window-width="1920"
     inkscape:window-height="1046"
     id="namedview8"
     showgrid="false"
     inkscape:zoom="6.5555556"
     inkscape:cx="18"
     inkscape:cy="18"
     inkscape:window-x="-11"
     inkscape:window-y="-11"
     inkscape:window-maximized="1"
     inkscape:current-layer="svg6" />
  <path
     d="M22 11h-4.17l3.24-3.24-1.41-1.42L15 11h-2V9l4.66-4.66-1.42-1.41L13 6.17V2h-2v4.17L7.76 2.93 6.34 4.34 11 9v2H9L4.34 6.34 2.93 7.76 6.17 11H2v2h4.17l-3.24 3.24 1.41 1.42L9 13h2v2l-4.66 4.66 1.42 1.41L11 17.83V22h2v-4.17l3.24 3.24 1.42-1.41L13 15v-2h2l4.66 4.66 1.41-1.42L17.83 13H22z"
     id="path2" />
  <path
     d="M0 0h24v24H0z"
     fill="none"
     id="path4" />
  <path
     style="fill:#808080;stroke-width:0.15254237"
     d="m 16.505085,29.837288 c 0,-1.677966 -0.05068,-3.050847 -0.112618,-3.050847 -0.06194,0 -1.159666,1.045412 -2.439391,2.323139 l -2.326773,2.323141 -0.994414,-0.985575 -0.9944134,-0.985574 3.4338044,-3.436241 3.433805,-3.43624 V 21.026749 19.464407 H 14.942743 13.380401 L 9.9441604,22.898212 6.5079197,26.332015 5.5223164,25.337573 4.536713,24.34313 6.9725006,21.903768 9.4082884,19.464407 H 6.2448221 3.0813559 V 18.015254 16.566102 H 6.2448221 9.4082884 L 6.9836639,14.13792 4.5590395,11.709737 5.4405214,10.705716 c 0.4848149,-0.552211 0.9594759,-1.0040211 1.0548022,-1.0040211 0.095327,0 1.7166681,1.5444911 3.6029814,3.4322031 l 3.429661,3.432204 h 1.488559 1.48856 V 15.00376 13.441418 L 13.034746,9.9632219 9.5644068,6.4850258 10.632203,5.509822 11.7,4.534618 14.102542,6.9256904 16.505085,9.3167629 V 6.2295678 3.1423729 h 1.449152 1.449153 v 3.0508474 c 0,1.6779661 0.0507,3.0508475 0.112672,3.0508475 0.06197,0 1.17882,-1.0645865 2.481891,-2.3657478 l 2.369219,-2.3657477 0.985616,0.9944555 0.985616,0.9944555 -3.467506,3.4699674 -3.467508,3.4699673 v 1.562342 1.562342 h 1.562342 1.562342 l 3.469967,-3.467508 3.469966,-3.4675068 0.994456,0.9856158 0.994456,0.985616 -2.365748,2.369219 c -1.30116,1.303071 -2.365747,2.419922 -2.365747,2.481892 0,0.06197 1.407203,0.112672 3.127118,0.112672 h 3.127119 v 1.449152 1.449153 h -3.163466 -3.163467 l 2.43729,2.440865 2.43729,2.440866 -1.028145,1.028146 -1.028146,1.028145 -3.471471,-3.469012 -3.471472,-3.46901 H 20.965732 19.40339 v 1.486095 1.486097 l 3.50993,3.512314 3.509928,3.512314 -1.033947,1.026026 -1.033949,1.026024 -2.359729,-2.363418 c -1.29785,-1.299881 -2.412042,-2.363418 -2.475981,-2.363418 -0.06394,0 -0.116252,1.372881 -0.116252,3.050847 v 3.050848 h -1.449153 -1.449152 z"
     id="path14"
     inkscape:connector-curvature="0"
     transform="scale(0.66666667)" />
</svg>
