<?xml version="1.0" encoding="UTF-8" standalone="no"?>
<svg
   xmlns:dc="http://purl.org/dc/elements/1.1/"
   xmlns:cc="http://creativecommons.org/ns#"
   xmlns:rdf="http://www.w3.org/1999/02/22-rdf-syntax-ns#"
   xmlns:svg="http://www.w3.org/2000/svg"
   xmlns="http://www.w3.org/2000/svg"
   xmlns:sodipodi="http://sodipodi.sourceforge.net/DTD/sodipodi-0.dtd"
   xmlns:inkscape="http://www.inkscape.org/namespaces/inkscape"
   fill="#000000"
   height="36"
   viewBox="0 0 24 24"
   width="36"
   version="1.1"
   id="svg6"
   sodipodi:docname="directions_car.svg"
   inkscape:version="0.92.2 (5c3e80d, 2017-08-06)">
  <metadata
     id="metadata12">
    <rdf:RDF>
      <cc:Work
         rdf:about="">
        <dc:format>image/svg+xml</dc:format>
        <dc:type
           rdf:resource="http://purl.org/dc/dcmitype/StillImage" />
      </cc:Work>
    </rdf:RDF>
  </metadata>
  <defs
     id="defs10" />
  <sodipodi:namedview
     pagecolor="#ffffff"
     bordercolor="#666666"
     borderopacity="1"
     objecttolerance="10"
     gridtolerance="10"
     guidetolerance="10"
     inkscape:pageopacity="0"
     inkscape:pageshadow="2"
     inkscape:window-width="1920"
     inkscape:window-height="1046"
     id="namedview8"
     showgrid="false"
     inkscape:zoom="6.5555556"
     inkscape:cx="18"
     inkscape:cy="18"
     inkscape:window-x="-11"
     inkscape:window-y="-11"
     inkscape:window-maximized="1"
     inkscape:current-layer="svg6" />
  <path
     d="M18.92 6.01C18.72 5.42 18.16 5 17.5 5h-11c-.66 0-1.21.42-1.42 1.01L3 12v8c0 .55.45 1 1 1h1c.55 0 1-.45 1-1v-1h12v1c0 .55.45 1 1 1h1c.55 0 1-.45 1-1v-8l-2.08-5.99zM6.5 16c-.83 0-1.5-.67-1.5-1.5S5.67 13 6.5 13s1.5.67 1.5 1.5S7.33 16 6.5 16zm11 0c-.83 0-1.5-.67-1.5-1.5s.67-1.5 1.5-1.5 1.5.67 1.5 1.5-.67 1.5-1.5 1.5zM5 11l1.5-4.5h11L19 11H5z"
     id="path2" />
  <path
     d="M0 0h24v24H0z"
     fill="none"
     id="path4" />
  <path
     style="fill:#808080;stroke-width:0.15254237"
     d="M 5.0089368,30.960555 4.6067797,30.558397 V 24.245323 17.932248 L 6.066495,13.702565 C 7.7156182,8.9240516 7.9508991,8.3759502 8.5369627,7.9474576 8.941318,7.6518186 9.2281634,7.6411391 17.801695,7.602522 c 8.194657,-0.036911 8.886051,-0.020028 9.370513,0.2288135 0.28768,0.1477655 0.648229,0.4402747 0.801221,0.6500204 0.152991,0.2097458 1.000945,2.4679041 1.884343,5.0181291 l 1.606175,4.636773 -0.04299,6.245197 -0.04299,6.245194 -0.427997,0.368032 c -0.378827,0.325749 -0.575007,0.368031 -1.707596,0.368031 -1.127692,0 -1.329691,-0.04309 -1.701571,-0.362966 -0.372455,-0.320372 -0.429173,-0.490425 -0.483347,-1.449152 l -0.06137,-1.086187 H 17.937023 8.8779661 v 1.045522 c 0,0.898369 -0.052649,1.102331 -0.3740722,1.449153 -0.3505954,0.378299 -0.4593859,0.40363 -1.733436,0.40363 -1.2653482,0 -1.3871777,-0.02781 -1.7615211,-0.402157 z m 5.8544602,-7.202706 c 0.645902,-0.343695 1.21294,-1.281157 1.21294,-2.005307 0,-0.72415 -0.567038,-1.661612 -1.21294,-2.005306 -0.9826915,-0.522905 -2.0889675,-0.31484 -2.8911026,0.543749 -0.5250243,0.561976 -0.6145949,1.940021 -0.1719306,2.645155 0.6558356,1.044702 1.9775979,1.399285 3.0630332,0.821709 z m 16.750508,-0.126206 c 0.945876,-0.693175 1.211344,-2.299562 0.532992,-3.22521 -0.66522,-0.907729 -2.122283,-1.211143 -3.062698,-0.637766 -1.526492,0.930713 -1.459452,3.194726 0.118841,4.01351 0.666061,0.345536 1.833412,0.272648 2.410865,-0.150534 z m 0.877421,-7.33249 C 28.444485,16.152331 27.936265,14.625 27.361951,12.905085 L 26.317742,9.7779661 17.992327,9.7385342 9.6669121,9.6991023 8.5859983,12.942003 c -0.5945025,1.783595 -1.0809136,3.32867 -1.0809136,3.4335 0,0.150597 2.2111617,0.190599 10.5357033,0.190599 9.964751,0 10.531088,-0.01447 10.450538,-0.266949 z"
     id="path14"
     inkscape:connector-curvature="0"
     transform="scale(0.66666667)" />
</svg>
