<?xml version="1.0" encoding="UTF-8" standalone="no"?>
<svg
   xmlns:dc="http://purl.org/dc/elements/1.1/"
   xmlns:cc="http://creativecommons.org/ns#"
   xmlns:rdf="http://www.w3.org/1999/02/22-rdf-syntax-ns#"
   xmlns:svg="http://www.w3.org/2000/svg"
   xmlns="http://www.w3.org/2000/svg"
   xmlns:sodipodi="http://sodipodi.sourceforge.net/DTD/sodipodi-0.dtd"
   xmlns:inkscape="http://www.inkscape.org/namespaces/inkscape"
   fill="#000000"
   height="36"
   viewBox="0 0 24 24"
   width="36"
   version="1.1"
   id="svg6"
   sodipodi:docname="chart.svg"
   inkscape:version="0.92.2 (5c3e80d, 2017-08-06)">
  <metadata
     id="metadata12">
    <rdf:RDF>
      <cc:Work
         rdf:about="">
        <dc:format>image/svg+xml</dc:format>
        <dc:type
           rdf:resource="http://purl.org/dc/dcmitype/StillImage" />
      </cc:Work>
    </rdf:RDF>
  </metadata>
  <defs
     id="defs10" />
  <sodipodi:namedview
     pagecolor="#ffffff"
     bordercolor="#666666"
     borderopacity="1"
     objecttolerance="10"
     gridtolerance="10"
     guidetolerance="10"
     inkscape:pageopacity="0"
     inkscape:pageshadow="2"
     inkscape:window-width="1920"
     inkscape:window-height="1046"
     id="namedview8"
     showgrid="false"
     inkscape:zoom="6.5555556"
     inkscape:cx="18"
     inkscape:cy="18"
     inkscape:window-x="-11"
     inkscape:window-y="-11"
     inkscape:window-maximized="1"
     inkscape:current-layer="svg6" />
  <path
     d="M19 3H5c-1.1 0-2 .9-2 2v14c0 1.1.9 2 2 2h14c1.1 0 2-.9 2-2V5c0-1.1-.9-2-2-2zM9 17H7v-7h2v7zm4 0h-2V7h2v10zm4 0h-2v-4h2v4z"
     id="path2" />
  <path
     d="M0 0h24v24H0z"
     fill="none"
     id="path4" />
  <path
     style="fill:#808080;stroke-width:0.15254237"
     d="M 6.0936935,31.04705 C 5.7788689,30.88085 5.3326825,30.459908 5.102168,30.111622 L 4.6830508,29.478374 4.6420569,18.140408 C 4.6019345,7.043501 4.6075803,6.7896665 4.907598,6.2015833 5.2939002,5.4443683 6.0121307,4.8919601 6.8949153,4.6730902 7.3763899,4.5537176 10.815264,4.5161316 18.411864,4.5472128 l 10.830509,0.044313 0.70983,0.4172796 c 0.526993,0.309798 0.811856,0.6220208 1.105932,1.2121543 l 0.396102,0.7948746 -0.0034,10.9912347 c -0.0032,10.372953 -0.01924,11.02556 -0.285849,11.601406 -0.328811,0.710197 -0.978869,1.361324 -1.589375,1.59199 -0.289848,0.109511 -4.082789,0.160055 -11.669492,0.155504 C 7.0033621,31.349425 6.6489201,31.340162 6.0936874,31.04705 Z M 13.60678,20.227119 V 14.888136 H 12.005085 10.40339 v 5.338983 5.338983 h 1.601695 1.601695 z m 5.949152,-2.211865 v -7.550847 h -1.525424 -1.525423 v 7.550847 7.550848 h 1.525423 1.525424 z m 5.949153,4.5 v -3.050847 h -1.525424 -1.525424 v 3.050847 3.050848 h 1.525424 1.525424 z"
     id="path14"
     inkscape:connector-curvature="0"
     transform="scale(0.66666667)" />
</svg>
