<?xml version="1.0" encoding="UTF-8" standalone="no"?>
<svg
   xmlns:dc="http://purl.org/dc/elements/1.1/"
   xmlns:cc="http://creativecommons.org/ns#"
   xmlns:rdf="http://www.w3.org/1999/02/22-rdf-syntax-ns#"
   xmlns:svg="http://www.w3.org/2000/svg"
   xmlns="http://www.w3.org/2000/svg"
   xmlns:sodipodi="http://sodipodi.sourceforge.net/DTD/sodipodi-0.dtd"
   xmlns:inkscape="http://www.inkscape.org/namespaces/inkscape"
   fill="#000000"
   height="36"
   viewBox="0 0 24 24"
   width="36"
   version="1.1"
   id="svg6"
   sodipodi:docname="gas_station.svg"
   inkscape:version="0.92.2 (5c3e80d, 2017-08-06)">
  <metadata
     id="metadata12">
    <rdf:RDF>
      <cc:Work
         rdf:about="">
        <dc:format>image/svg+xml</dc:format>
        <dc:type
           rdf:resource="http://purl.org/dc/dcmitype/StillImage" />
      </cc:Work>
    </rdf:RDF>
  </metadata>
  <defs
     id="defs10" />
  <sodipodi:namedview
     pagecolor="#ffffff"
     bordercolor="#666666"
     borderopacity="1"
     objecttolerance="10"
     gridtolerance="10"
     guidetolerance="10"
     inkscape:pageopacity="0"
     inkscape:pageshadow="2"
     inkscape:window-width="1920"
     inkscape:window-height="1046"
     id="namedview8"
     showgrid="false"
     inkscape:zoom="6.5555556"
     inkscape:cx="18"
     inkscape:cy="18"
     inkscape:window-x="-11"
     inkscape:window-y="-11"
     inkscape:window-maximized="1"
     inkscape:current-layer="svg6" />
  <path
     d="M0 0h24v24H0z"
     fill="none"
     id="path2" />
  <path
     d="M19.77 7.23l.01-.01-3.72-3.72L15 4.56l2.11 2.11c-.94.36-1.61 1.26-1.61 2.33 0 1.38 1.12 2.5 2.5 2.5.36 0 .69-.08 1-.21v7.21c0 .55-.45 1-1 1s-1-.45-1-1V14c0-1.1-.9-2-2-2h-1V5c0-1.1-.9-2-2-2H6c-1.1 0-2 .9-2 2v16h10v-7.5h1.5v5c0 1.38 1.12 2.5 2.5 2.5s2.5-1.12 2.5-2.5V9c0-.69-.28-1.32-.73-1.77zM12 10H6V5h6v5zm6 0c-.55 0-1-.45-1-1s.45-1 1-1 1 .45 1 1-.45 1-1 1z"
     id="path4" />
  <path
     style="fill:#808080;stroke-width:0.15254237"
     d="m 6.1677256,18.868344 0.040749,-12.4943683 0.4738,-0.5861404 C 7.6687757,4.5674299 7.5323781,4.5915254 13.454237,4.5915254 c 5.179136,0 5.273005,0.0055 5.910847,0.3462338 0.356474,0.1904286 0.836983,0.6314896 1.067797,0.9801356 l 0.419661,0.6339017 0.04334,5.7544245 0.04334,5.754425 1.264633,0.05358 c 1.072134,0.04542 1.36113,0.117456 1.898564,0.473237 0.349526,0.231387 0.788639,0.710438 0.978773,1.067798 0.328826,0.618033 0.347273,0.837274 0.397203,4.720675 l 0.05236,4.072541 0.372254,0.372254 c 0.469289,0.469289 1.068201,0.587807 1.67956,0.332364 0.987866,-0.412757 0.973365,-0.314257 0.973365,-6.611827 0,-5.371774 -0.01549,-5.696272 -0.266949,-5.591655 -0.588742,0.24494 -1.709953,0.257437 -2.387395,0.02661 -2.188544,-0.745711 -3.154158,-3.068002 -2.130134,-5.122948 0.354501,-0.711391 1.174688,-1.513996 1.781656,-1.743465 0.09943,-0.03759 -0.523521,-0.7816344 -1.384345,-1.6534293 L 22.603631,6.871293 23.375615,6.1127652 24.147598,5.3542373 27.084301,8.3288136 c 1.673092,1.6946684 3.064552,3.2371214 3.233828,3.5847454 0.280834,0.576714 0.299508,1.040272 0.340586,8.454423 0.04726,8.53008 0.04393,8.570022 -0.808124,9.687118 -0.924379,1.211925 -3.024723,1.67883 -4.449479,0.989117 -0.805985,-0.39017 -1.617529,-1.309363 -1.854586,-2.100589 -0.11513,-0.384267 -0.177034,-2.011567 -0.177034,-4.653699 v -4.06281 h -1.220339 -1.220339 v 5.567796 5.567797 H 13.527895 6.1269767 Z M 18.030508,11.227119 V 7.4135593 H 13.454237 8.8779661 v 3.8135597 3.813559 h 4.5762709 4.576271 z m 9.748802,3.591939 c 0.543602,-0.281107 0.842048,-0.983502 0.712132,-1.676008 -0.209674,-1.117658 -1.594233,-1.534784 -2.517026,-0.758303 -0.395702,0.33296 -0.469331,0.502319 -0.469331,1.07953 0,1.262349 1.139867,1.94138 2.274225,1.354781 z"
     id="path14"
     inkscape:connector-curvature="0"
     transform="scale(0.66666667)" />
</svg>
