<?xml version="1.0" encoding="UTF-8" standalone="no"?>
<svg
   xmlns:dc="http://purl.org/dc/elements/1.1/"
   xmlns:cc="http://creativecommons.org/ns#"
   xmlns:rdf="http://www.w3.org/1999/02/22-rdf-syntax-ns#"
   xmlns:svg="http://www.w3.org/2000/svg"
   xmlns="http://www.w3.org/2000/svg"
   xmlns:sodipodi="http://sodipodi.sourceforge.net/DTD/sodipodi-0.dtd"
   xmlns:inkscape="http://www.inkscape.org/namespaces/inkscape"
   fill="#000000"
   height="36"
   viewBox="0 0 24 24"
   width="36"
   version="1.1"
   id="svg6"
   sodipodi:docname="lock.svg"
   inkscape:version="0.92.2 (5c3e80d, 2017-08-06)">
  <metadata
     id="metadata12">
    <rdf:RDF>
      <cc:Work
         rdf:about="">
        <dc:format>image/svg+xml</dc:format>
        <dc:type
           rdf:resource="http://purl.org/dc/dcmitype/StillImage" />
      </cc:Work>
    </rdf:RDF>
  </metadata>
  <defs
     id="defs10" />
  <sodipodi:namedview
     pagecolor="#ffffff"
     bordercolor="#666666"
     borderopacity="1"
     objecttolerance="10"
     gridtolerance="10"
     guidetolerance="10"
     inkscape:pageopacity="0"
     inkscape:pageshadow="2"
     inkscape:window-width="1920"
     inkscape:window-height="1046"
     id="namedview8"
     showgrid="false"
     inkscape:zoom="6.5555556"
     inkscape:cx="18"
     inkscape:cy="18"
     inkscape:window-x="-11"
     inkscape:window-y="-11"
     inkscape:window-maximized="1"
     inkscape:current-layer="svg6" />
  <path
     d="M0 0h24v24H0z"
     fill="none"
     id="path2" />
  <path
     d="M18 8h-1V6c0-2.76-2.24-5-5-5S7 3.24 7 6v2H6c-1.1 0-2 .9-2 2v10c0 1.1.9 2 2 2h12c1.1 0 2-.9 2-2V10c0-1.1-.9-2-2-2zm-6 9c-1.1 0-2-.9-2-2s.9-2 2-2 2 .9 2 2-.9 2-2 2zm3.1-9H8.9V6c0-1.71 1.39-3.1 3.1-3.1 1.71 0 3.1 1.39 3.1 3.1v2z"
     id="path4" />
  <path
     style="fill:#808080;stroke-width:0.15254237"
     d="M 7.9848548,32.724923 C 7.3101947,32.454705 6.7356909,31.947629 6.4338347,31.355942 6.1443615,30.788529 6.1322034,30.432179 6.1322034,22.515254 c 0,-7.935658 0.011551,-8.272084 0.3036766,-8.844697 0.1670222,-0.327391 0.5562436,-0.788004 0.8649366,-1.023584 0.4989796,-0.380799 0.7107218,-0.434245 1.9081877,-0.481642 l 1.3469277,-0.05331 v -1.884094 c 0,-2.2078245 0.16656,-3.1384974 0.803981,-4.4923308 0.55873,-1.1867009 1.984623,-2.6830952 3.090141,-3.2429291 2.985556,-1.51188379 6.386555,-1.0477761 8.683943,1.1850297 1.633658,1.5877342 2.186109,3.0822022 2.324585,6.2883807 l 0.094,2.1762985 h 1.137687 c 1.361579,0 2.094731,0.340316 2.740689,1.272177 l 0.421587,0.608187 0.04694,8.097953 c 0.03237,5.584558 -0.0053,8.276284 -0.121288,8.672517 -0.211021,0.720719 -0.988147,1.618786 -1.634472,1.888838 -0.397506,0.166088 -2.36695,0.204214 -10.146451,0.196421 -5.667275,-0.0057 -9.8015277,-0.06908 -10.0124172,-0.153543 z M 18.993635,25.402849 c 0.779981,-0.21659 1.691651,-1.178817 1.932747,-2.039927 0.55886,-1.996053 -0.900759,-3.902945 -2.98217,-3.896006 -0.912163,0.003 -1.74828,0.44088 -2.409283,1.261638 -0.621194,0.771329 -0.749372,2.182653 -0.281171,3.095881 0.738527,1.440498 2.126696,2.026375 3.739877,1.578414 z M 22.683051,10.00342 c 0,-2.0230523 -0.0096,-2.0822193 -0.500685,-3.0795647 -0.818643,-1.6626512 -2.256194,-2.5791939 -4.061673,-2.5896098 -1.902182,-0.010974 -3.379437,0.8468194 -4.290241,2.4912009 -0.434903,0.785182 -0.454513,0.9044445 -0.504657,3.0691513 l -0.05217,2.2522253 4.704714,-0.04036 4.704713,-0.04036 z"
     id="path14"
     inkscape:connector-curvature="0"
     transform="scale(0.66666667)" />
</svg>
