<?xml version="1.0" encoding="UTF-8" standalone="no"?>
<svg
   xmlns:dc="http://purl.org/dc/elements/1.1/"
   xmlns:cc="http://creativecommons.org/ns#"
   xmlns:rdf="http://www.w3.org/1999/02/22-rdf-syntax-ns#"
   xmlns:svg="http://www.w3.org/2000/svg"
   xmlns="http://www.w3.org/2000/svg"
   xmlns:sodipodi="http://sodipodi.sourceforge.net/DTD/sodipodi-0.dtd"
   xmlns:inkscape="http://www.inkscape.org/namespaces/inkscape"
   fill="#000000"
   height="36"
   viewBox="0 0 24 24"
   width="36"
   version="1.1"
   id="svg6"
   sodipodi:docname="ic_lock_open_black_36px.svg"
   inkscape:version="0.92.2 (5c3e80d, 2017-08-06)">
  <metadata
     id="metadata12">
    <rdf:RDF>
      <cc:Work
         rdf:about="">
        <dc:format>image/svg+xml</dc:format>
        <dc:type
           rdf:resource="http://purl.org/dc/dcmitype/StillImage" />
      </cc:Work>
    </rdf:RDF>
  </metadata>
  <defs
     id="defs10" />
  <sodipodi:namedview
     pagecolor="#ffffff"
     bordercolor="#666666"
     borderopacity="1"
     objecttolerance="10"
     gridtolerance="10"
     guidetolerance="10"
     inkscape:pageopacity="0"
     inkscape:pageshadow="2"
     inkscape:window-width="1920"
     inkscape:window-height="1046"
     id="namedview8"
     showgrid="false"
     inkscape:zoom="6.5555556"
     inkscape:cx="18"
     inkscape:cy="18"
     inkscape:window-x="-11"
     inkscape:window-y="-11"
     inkscape:window-maximized="1"
     inkscape:current-layer="svg6" />
  <path
     d="M0 0h24v24H0z"
     fill="none"
     id="path2" />
  <path
     d="M12 17c1.1 0 2-.9 2-2s-.9-2-2-2-2 .9-2 2 .9 2 2 2zm6-9h-1V6c0-2.76-2.24-5-5-5S7 3.24 7 6h1.9c0-1.71 1.39-3.1 3.1-3.1 1.71 0 3.1 1.39 3.1 3.1v2H6c-1.1 0-2 .9-2 2v10c0 1.1.9 2 2 2h12c1.1 0 2-.9 2-2V10c0-1.1-.9-2-2-2zm0 12H6V10h12v10z"
     id="path4" />
  <path
     style="fill:#808080;stroke-width:0.15254237"
     d="m 16.676135,25.082702 c -2.082063,-1.030589 -2.073998,-4.111458 0.01355,-5.1769 1.033381,-0.527417 2.3871,-0.340659 3.228702,0.445428 1.603171,1.49742 1.162618,3.983053 -0.855401,4.826235 -0.783215,0.327249 -1.599773,0.29483 -2.386852,-0.09476 z"
     id="path14"
     inkscape:connector-curvature="0"
     transform="scale(0.66666667)" />
  <path
     style="fill:#808080;stroke-width:0.15254237"
     d="M 7.9848548,32.724923 C 7.3101947,32.454705 6.7356909,31.947629 6.4338347,31.355942 6.1443615,30.788529 6.1322034,30.432179 6.1322034,22.515254 c 0,-7.935658 0.011551,-8.272084 0.3036766,-8.844697 0.1670222,-0.327391 0.5563029,-0.788004 0.8650682,-1.023584 l 0.5613914,-0.428329 7.4103554,-0.07627 7.410356,-0.07627 -0.0035,-2.059322 C 22.676348,8.1193836 22.643361,7.8774137 22.284444,7.1084746 21.724241,5.9083075 21.19613,5.3535865 20.099994,4.8139606 18.429237,3.9914494 16.344313,4.221535 14.99388,5.3774552 14.182416,6.0720381 13.485249,7.2824537 13.35987,8.2144068 l -0.09748,0.7245763 h -1.372882 -1.372881 l 0.105174,-0.7928439 c 0.497554,-3.7507444 3.615958,-6.52919 7.328073,-6.52919 2.015886,0 3.788984,0.7048253 5.184122,2.0607446 1.633658,1.5877342 2.186109,3.0822022 2.324585,6.2883807 l 0.094,2.1762985 h 1.137687 c 1.361579,0 2.094731,0.340316 2.740689,1.272177 l 0.421587,0.608187 0.04694,8.097953 c 0.03237,5.584558 -0.0053,8.276284 -0.121288,8.672517 -0.211021,0.720719 -0.988147,1.618786 -1.634472,1.888838 -0.397506,0.166088 -2.36695,0.204214 -10.146451,0.196421 -5.667275,-0.0057 -9.8015277,-0.06908 -10.0124172,-0.153543 z M 27.030508,22.515254 V 14.888136 H 17.954237 8.8779661 v 7.525423 c 0,4.138984 0.045763,7.571187 0.101695,7.627118 0.055932,0.05593 4.1402539,0.101696 9.0762709,0.101696 h 8.974576 z"
     id="path16"
     inkscape:connector-curvature="0"
     transform="scale(0.66666667)" />
</svg>
