<?xml version="1.0" encoding="UTF-8" standalone="no"?>
<svg
   xmlns:dc="http://purl.org/dc/elements/1.1/"
   xmlns:cc="http://creativecommons.org/ns#"
   xmlns:rdf="http://www.w3.org/1999/02/22-rdf-syntax-ns#"
   xmlns:svg="http://www.w3.org/2000/svg"
   xmlns="http://www.w3.org/2000/svg"
   xmlns:sodipodi="http://sodipodi.sourceforge.net/DTD/sodipodi-0.dtd"
   xmlns:inkscape="http://www.inkscape.org/namespaces/inkscape"
   fill="#000000"
   height="36"
   viewBox="0 0 24 24"
   width="36"
   version="1.1"
   id="svg6"
   sodipodi:docname="lockstate.svg"
   inkscape:version="0.92.2 (5c3e80d, 2017-08-06)">
  <metadata
     id="metadata12">
    <rdf:RDF>
      <cc:Work
         rdf:about="">
        <dc:format>image/svg+xml</dc:format>
        <dc:type
           rdf:resource="http://purl.org/dc/dcmitype/StillImage" />
        <dc:title />
      </cc:Work>
    </rdf:RDF>
  </metadata>
  <defs
     id="defs10" />
  <sodipodi:namedview
     pagecolor="#ffffff"
     bordercolor="#666666"
     borderopacity="1"
     objecttolerance="10"
     gridtolerance="10"
     guidetolerance="10"
     inkscape:pageopacity="0"
     inkscape:pageshadow="2"
     inkscape:window-width="1920"
     inkscape:window-height="1046"
     id="namedview8"
     showgrid="false"
     inkscape:zoom="6.5555556"
     inkscape:cx="18"
     inkscape:cy="18"
     inkscape:window-x="-11"
     inkscape:window-y="-11"
     inkscape:window-maximized="1"
     inkscape:current-layer="svg6" />
  <path
     d="M0 0h24v24H0z"
     fill="none"
     id="path2" />
  <path
     style="fill:#808080;stroke-width:0.10169491"
     d="m 4.3367235,11.659889 v -0.966102 h 0.9661013 0.9661023 v 0.966102 0.966101 H 5.3028248 4.3367235 Z"
     id="path16"
     inkscape:connector-curvature="0" />
  <path
     style="fill:#808080;stroke-width:0.10169491"
     d="M 4.4044109,9.1429387 C 4.4309979,8.9052267 4.5982502,8.4156314 4.7760898,8.0549484 5.0385698,7.5226034 5.2662258,7.2585541 5.9855158,6.6521841 6.4728601,6.2413481 6.9694511,5.7677828 7.0890521,5.5998198 7.6997804,4.7421298 7.2889901,3.3836742 6.2601861,2.8588175 5.8022858,2.6252148 4.9901888,2.5964535 4.5114229,2.7968842 4.0165169,3.0040708 3.4359682,3.7028922 3.3590275,4.1840515 l -0.065247,0.40804 H 2.3268535 1.3599268 l 0.065887,-0.480716 C 1.5046662,3.5360822 1.9582742,2.5341762 2.3491422,2.0719735 2.7595508,1.5866642 3.3980622,1.1789119 4.1417649,0.92720807 5.5941918,0.43563877 7.1309741,0.85653057 8.2340674,2.0480022 8.9533587,2.8249228 9.2424837,3.5475902 9.2519067,4.5920915 9.2612067,5.6234578 9.0423407,6.0134811 7.7404024,7.2855621 6.6909261,8.3109704 6.4546251,8.6377934 6.3239411,9.2446347 l -0.07118,0.330508 H 5.3044198 4.3560762 Z"
     id="path18"
     inkscape:connector-curvature="0" />
  <path
     style="fill:#808080;stroke-width:0.08133391"
     d="M 10.305244,22.40073 C 9.9247199,22.264529 9.6006862,22.008943 9.4304316,21.710709 9.2671618,21.42471 9.2603047,21.245096 9.2603047,17.254652 c 0,-3.999887 0.00651,-4.169459 0.1712809,-4.458079 0.094204,-0.165017 0.3137347,-0.397185 0.4878449,-0.515926 0.2814365,-0.191938 0.4008635,-0.218877 1.0762635,-0.242767 l 0.7597,-0.02687 v -0.949657 c 0,-1.1128323 0.09394,-1.5819283 0.453464,-2.2643143 0.315138,-0.598144 1.119375,-1.352386 1.742914,-1.6345646 1.683926,-0.7620494 3.602171,-0.5281207 4.897953,0.597302 0.921422,0.8002811 1.233018,1.5535516 1.311122,3.1695939 l 0.05302,1.096941 h 0.641683 c 0.767964,0 1.181479,0.171532 1.545814,0.641228 l 0.237786,0.30655 0.02647,4.081689 c 0.01826,2.814839 -0.003,4.171576 -0.06841,4.371293 -0.119022,0.36327 -0.557339,0.815932 -0.921882,0.952049 -0.224203,0.08372 -1.335017,0.102932 -5.722842,0.099 -3.19648,-0.0029 -5.528297,-0.03482 -5.647244,-0.07739 z M 21.04745,17.254652 v -3.84437 h -5.119234 -5.119235 v 3.793111 c 0,2.086212 0.02581,3.816179 0.05736,3.84437 0.03155,0.02819 2.335203,0.05126 5.119236,0.05126 h 5.061875 z m -2.452069,-6.306461 c 0,-1.0196993 -0.0054,-1.0495223 -0.282399,-1.5522233 -0.461734,-0.8380423 -1.272547,-1.3000162 -2.290881,-1.3052662 -1.072876,-0.00553 -1.906084,0.4268306 -2.419799,1.2556642 -0.245296,0.395763 -0.256356,0.455876 -0.284639,1.5469743 l -0.02942,1.135211 2.653572,-0.02035 2.653571,-0.02035 z"
     id="path16-6"
     inkscape:connector-curvature="0" />
  <path
     style="fill:#808080;stroke-width:0.08133391"
     d="m 15.207335,18.548747 c -1.174333,-0.519458 -1.169784,-2.072338 0.0076,-2.609363 0.582852,-0.265839 1.346381,-0.171706 1.821065,0.224513 0.904228,0.75476 0.655745,2.007617 -0.482466,2.432614 -0.441752,0.164947 -0.90231,0.148606 -1.346242,-0.04776 z"
     id="path18-8"
     inkscape:connector-curvature="0" />
</svg>
