<?xml version="1.0" encoding="UTF-8" standalone="no"?>
<svg
   xmlns:dc="http://purl.org/dc/elements/1.1/"
   xmlns:cc="http://creativecommons.org/ns#"
   xmlns:rdf="http://www.w3.org/1999/02/22-rdf-syntax-ns#"
   xmlns:svg="http://www.w3.org/2000/svg"
   xmlns="http://www.w3.org/2000/svg"
   xmlns:sodipodi="http://sodipodi.sourceforge.net/DTD/sodipodi-0.dtd"
   xmlns:inkscape="http://www.inkscape.org/namespaces/inkscape"
   fill="#000000"
   height="36"
   viewBox="0 0 24 24"
   width="36"
   version="1.1"
   id="svg6"
   sodipodi:docname="opacity.svg"
   inkscape:version="0.92.2 (5c3e80d, 2017-08-06)">
  <metadata
     id="metadata12">
    <rdf:RDF>
      <cc:Work
         rdf:about="">
        <dc:format>image/svg+xml</dc:format>
        <dc:type
           rdf:resource="http://purl.org/dc/dcmitype/StillImage" />
      </cc:Work>
    </rdf:RDF>
  </metadata>
  <defs
     id="defs10" />
  <sodipodi:namedview
     pagecolor="#ffffff"
     bordercolor="#666666"
     borderopacity="1"
     objecttolerance="10"
     gridtolerance="10"
     guidetolerance="10"
     inkscape:pageopacity="0"
     inkscape:pageshadow="2"
     inkscape:window-width="1920"
     inkscape:window-height="1046"
     id="namedview8"
     showgrid="false"
     inkscape:zoom="6.5555556"
     inkscape:cx="18"
     inkscape:cy="18"
     inkscape:window-x="-11"
     inkscape:window-y="-11"
     inkscape:window-maximized="1"
     inkscape:current-layer="svg6" />
  <path
     d="M24 0H0v24h24V0zm0 0H0v24h24V0zM0 24h24V0H0v24z"
     fill="none"
     id="path2" />
  <path
     d="M17.66 8L12 2.35 6.34 8C4.78 9.56 4 11.64 4 13.64s.78 4.11 2.34 5.67 3.61 2.35 5.66 2.35 4.1-.79 5.66-2.35S20 15.64 20 13.64 19.22 9.56 17.66 8zM6 14c.01-2 .62-3.27 1.76-4.4L12 5.27l4.24 4.38C17.38 10.77 17.99 12 18 14H6z"
     id="path4" />
  <path
     style="fill:#808080;stroke-width:0.15254237"
     d="M 16.174198,32.284921 C 11.294717,31.389669 7.5607461,27.931723 6.4442712,23.274256 6.0627581,21.682742 6.034251,19.431628 6.3761232,17.892824 6.687518,16.491203 7.724938,14.287191 8.5769623,13.217115 9.5512164,11.993528 11.133162,10.370709 14.788205,6.8453922 l 3.262663,-3.1468634 4.57598,4.5651423 c 4.969442,4.9576719 5.741169,5.9121079 6.51363,8.0557529 1.644657,4.564071 0.57654,9.321218 -2.843891,12.666028 -1.522922,1.489253 -3.305312,2.517999 -5.291502,3.054106 -1.080881,0.291748 -3.819844,0.430862 -4.830887,0.245363 z M 27.028254,20.341525 c -0.003,-1.065966 -0.361933,-2.536002 -0.875087,-3.583999 -0.486403,-0.993366 -1.171631,-1.773282 -5.19402,-5.911763 L 17.993881,7.7949153 14.417163,11.455932 c -3.720029,3.807706 -4.365333,4.604652 -4.9012908,6.05305 -0.3277014,0.885597 -0.7007046,3.255829 -0.5505927,3.498716 0.046605,0.07541 4.0399765,0.134675 9.0742315,0.134675 h 8.990997 l -0.0023,-0.800848 z"
     id="path14"
     inkscape:connector-curvature="0"
     transform="scale(0.66666667)" />
</svg>
